<svg xmlns="http://www.w3.org/2000/svg" viewBox="0 0 247.16 227.17"><defs><style>.cls-1{opacity:0.5;}.cls-2{fill:#fdfdfd;}.cls-3{fill:#110e0d;}.cls-4{fill:#c65d2b;}</style></defs><title>new_Recurso 1</title><g id="Capa_2" data-name="Capa 2"><g id="Capa_1-2" data-name="Capa 1"><g class="cls-1"><path class="cls-2" d="M124.5,228c-40,0-80,0-120,.08-3,0-3.59-.6-3.58-3.58q.16-110,0-220c0-3,.6-3.59,3.58-3.58q120,.15,240,0c3,0,3.59.6,3.58,3.58q-.16,110,0,220c0,3-.6,3.59-3.58,3.58C204.5,228,164.5,228,124.5,228ZM197.19,93.44c-.16-18.82-8.77-33.89-21.56-46.78C164,34.91,149.15,29.5,132.94,28.5c-23.11-1.42-43.61,5-58.95,23.26-23.24,27.64-21.64,61.1-2.13,88.88,15.12,21.52,34.8,39.12,52.28,58.62,2.41,2.69,3.67,1.29,5.42-.66,11.65-13,23.42-26,35.08-39a169.11,169.11,0,0,0,21.18-28.94C192.39,119.16,197.33,107.08,197.19,93.44ZM129.61,215.87c-5.37.29-11.83-.66-18.33-.81-12.57-.28-24.73-2.94-36.72-6.41a40.88,40.88,0,0,1-14.51-7.59c-1.35-1.1-3.52-2.36-2.17-4.36,2.6-3.86,6.33-7.51,10.61-8.3a133.33,133.33,0,0,1,23.2-2.51c2.09,0,4.3,0,6-1.88.91-1,2.94-1.13,2.35-3.2s-2.19-1.83-3.95-1.95c-14.08-1-27,3.59-39.87,8.23a37.92,37.92,0,0,0-14.62,9.58c-2.75,2.87-2.36,6.08-.55,9.16a22.17,22.17,0,0,0,9.29,8.65c11.58,5.84,24.25,8.08,36.78,10.28A166.22,166.22,0,0,0,113.6,227c24.5.32,48.91.12,73-5,10-2.13,19.25-5.76,27.49-11.82,5.34-3.92,6.33-10.32,1.93-14.68a36,36,0,0,0-8.82-6.67c-5.27-2.7-11.26-2.82-16.51-5-5.6-2.37-11.41-3.42-17.23-4.44-3.89-.68-8-.35-12-.41a3.78,3.78,0,0,0-3.65,3.42c-.26,2.12,2.12,1.44,3.37,1.61,6.75.92,13.63,1.2,20.2,3.07,6.32,1.8,12.85,3.23,17.9,8,1.9,1.81,1.9,3.23,0,5A33.09,33.09,0,0,1,188.57,207C169.93,214.12,150.47,215.85,129.61,215.87Z" transform="translate(-0.92 -0.92)"/><path class="cls-3" d="M197.19,93.44c.15,13.63-4.8,25.72-11.37,37.24a169.11,169.11,0,0,1-21.18,28.94c-11.66,13-23.42,26-35.08,39-1.75,2-3,3.36-5.42.66-17.48-19.5-37.16-37.11-52.28-58.62C52.36,112.87,50.75,79.41,74,51.76c15.34-18.24,35.84-24.68,58.95-23.26,16.21,1,31,6.41,42.68,18.16C188.42,59.56,197,74.62,197.19,93.44Zm-55.13,5.43H142c0-5.49.21-11-.06-16.48a17.76,17.76,0,0,0-6.16-13.11C127.37,62,119.85,61,109.62,66.37c-3.15,1.64-5.57,2.15-8.5-.34-2.74-2.33-6.34-2.86-9.84-3A21.44,21.44,0,0,0,69,83.3c-.44,8.47-.18,17-.19,25.47,0,9.36,0,9.21,9.4,9.31,3.35,0,4.57-.65,4.46-4.33-.29-9.81-.12-19.64-.06-29.46,0-4.26,2.3-7.23,5.95-8.12C92.5,75.2,96,77,98,80.94c1.1,2.17,1.13,4.52,1.15,6.83.07,7.33,0,14.65,0,22,0,8.34,0,8.15,8.51,8.34,3.66.08,4.77-.84,4.64-4.65-.33-9.15-.12-18.31-.1-27.47,0-3.82.71-7.35,4.75-9.05,6.14-2.6,11.72,1.08,11.92,8.15.23,7.82.08,15.65.08,23.48,0,10.09,0,10,10.06,9.48,2.39-.12,3.13-.81,3.06-3.18C142,109.53,142.06,104.2,142.06,98.88Zm9.07,1.36q0,4.24,0,8.47c0,9.54,0,9.37,9.52,9.37,3.44,0,4.19-1.28,4.13-4.38-.14-8.47,0-16.95,0-25.42,0-4.89,2.29-7.91,6.86-9.72,8-3.18,8-3.32,7.57-12.16a3.25,3.25,0,0,1,0-.5c.27-2.5-1-3.31-3.26-2.85C164,65.44,149.92,75,151.1,90.27,151.35,93.57,151.14,96.91,151.13,100.23Z" transform="translate(-0.92 -0.92)"/><path class="cls-4" d="M129.61,215.87c20.87,0,40.32-1.75,59-8.91a33.09,33.09,0,0,0,10.85-6.91c1.86-1.74,1.86-3.17,0-5-5-4.79-11.58-6.22-17.9-8-6.58-1.88-13.45-2.16-20.2-3.07-1.25-.17-3.64.5-3.37-1.61a3.78,3.78,0,0,1,3.65-3.42c4,.05,8.06-.27,12,.41,5.82,1,11.63,2.06,17.23,4.44,5.25,2.23,11.25,2.34,16.51,5a36,36,0,0,1,8.82,6.67c4.4,4.36,3.4,10.76-1.93,14.68-8.24,6.06-17.48,9.69-27.49,11.82-24.13,5.13-48.54,5.32-73,5a166.22,166.22,0,0,1-26.5-2.25c-12.53-2.2-25.2-4.44-36.78-10.28A22.17,22.17,0,0,1,41,205.82c-1.81-3.07-2.2-6.29.55-9.16a37.92,37.92,0,0,1,14.62-9.58c12.88-4.64,25.79-9.21,39.87-8.23,1.76.12,3.35-.13,3.95,1.95S98.57,183,97.67,184c-1.68,1.86-3.89,1.87-6,1.88a133.33,133.33,0,0,0-23.2,2.51c-4.28.79-8,4.44-10.61,8.3-1.35,2,.82,3.26,2.17,4.36a40.88,40.88,0,0,0,14.51,7.59c12,3.47,24.16,6.13,36.72,6.41C117.77,215.2,124.23,216.16,129.61,215.87Z" transform="translate(-0.92 -0.92)"/><path class="cls-2" d="M142.06,98.88c0,5.33-.11,10.66,0,16,.07,2.37-.67,3.06-3.06,3.18-10.06.51-10.05.6-10.06-9.48,0-7.83.14-15.66-.08-23.48-.2-7.07-5.78-10.74-11.92-8.15-4,1.71-4.74,5.23-4.75,9.05,0,9.16-.23,18.32.1,27.47.14,3.81-1,4.73-4.64,4.65-8.52-.19-8.51,0-8.51-8.34,0-7.33,0-14.65,0-22,0-2.32-.05-4.67-1.15-6.83-2-3.94-5.5-5.74-9.41-4.78-3.65.89-5.92,3.87-5.95,8.12-.06,9.82-.23,19.65.06,29.46.11,3.68-1.12,4.36-4.46,4.33-9.4-.1-9.42,0-9.4-9.31,0-8.49-.25-17,.19-25.47A21.44,21.44,0,0,1,91.28,63c3.5.19,7.1.71,9.84,3,2.93,2.49,5.35,2,8.5.34C119.85,61,127.37,62,135.78,69.28a17.76,17.76,0,0,1,6.16,13.11c.27,5.48.06,11,.06,16.48Z" transform="translate(-0.92 -0.92)"/><path class="cls-4" d="M151.13,100.23c0-3.32.22-6.66,0-10C149.92,75,164,65.44,175.92,63c2.3-.46,3.53.35,3.26,2.85a3.25,3.25,0,0,0,0,.5c.42,8.84.47,9-7.57,12.16-4.58,1.81-6.87,4.83-6.86,9.72,0,8.47-.12,17,0,25.42.05,3.1-.69,4.38-4.13,4.38-9.53,0-9.53.16-9.52-9.37Q151.13,104.47,151.13,100.23Z" transform="translate(-0.92 -0.92)"/></g></g></g></svg>